<svg width="40" height="40" viewBox="0 0 40 40" fill="none" xmlns="http://www.w3.org/2000/svg">
<path fill-rule="evenodd" clip-rule="evenodd" d="M35.4194 18.9919C35.1378 18.7132 34.7961 18.5723 34.4006 18.5723C34.005 18.5723 33.6633 18.7132 33.3785 18.9919C33.1 19.2736 32.9576 19.6086 32.9576 20C32.9576 21.5842 32.3944 22.9368 31.2711 24.0451C30.1446 25.1597 28.7808 25.717 27.1797 25.717C25.5786 25.717 24.2179 25.1597 23.0946 24.0451C22.1928 23.1528 21.6581 22.1071 21.4809 20.9142V1.42768C21.4809 1.03632 21.3385 0.701315 21.0568 0.422668C20.7721 0.140889 20.4335 0 20.0348 0C20.0221 0 20.0126 0.00313087 20 0.00313087C19.9873 0.00313087 19.9747 0 19.9652 0C19.5665 0 19.2279 0.140889 18.9431 0.422668C18.6615 0.701315 18.5191 1.03632 18.5191 1.42768V13.5285C16.9148 12.1165 15.0163 11.412 12.8171 11.412C10.4217 11.412 8.38079 12.248 6.69107 13.9199C5.1121 15.4822 4.27041 17.3482 4.16599 19.5178C4.15966 19.5773 4.15649 19.6368 4.15649 19.6963V19.9843V19.9937V20.8046C4.15649 20.9862 4.18814 21.1584 4.24826 21.315C4.25459 21.3682 4.26724 21.4245 4.27674 21.4778C4.29572 21.5874 4.31471 21.6969 4.34002 21.8096C4.35584 21.9036 4.37799 22.0006 4.40331 22.0946C4.41596 22.154 4.43179 22.2135 4.44761 22.2668C4.5014 22.4703 4.56152 22.6675 4.62797 22.8616C4.64063 22.8898 4.65012 22.9148 4.65645 22.9399C5.0773 24.0889 5.74496 25.1315 6.69107 26.0645C8.38079 27.7364 10.4217 28.5723 12.8171 28.5723C15.0479 28.5723 16.9718 27.8428 18.5887 26.3932V31.4308C18.5887 33.015 18.0286 34.3613 16.9053 35.4759C15.7788 36.5874 14.4182 37.1478 12.8171 37.1478C11.216 37.1478 9.85534 36.5874 8.72886 35.4759C7.60554 34.3613 7.04231 33.015 7.04231 31.4308C7.04231 31.0363 6.90308 30.6982 6.61829 30.4195C6.33667 30.1409 5.99493 30 5.5994 30C5.2007 30 4.86213 30.1409 4.58051 30.4195C4.29889 30.6982 4.15649 31.0363 4.15649 31.4308C4.15649 33.7977 5.00135 35.8203 6.69107 37.4922C8.38079 39.1672 10.4217 40 12.8171 40C15.2093 40 17.2534 39.1672 18.9431 37.4922C20.6328 35.8203 21.4809 33.7977 21.4809 31.4308V26.4559C23.0851 27.8647 24.9837 28.5723 27.1797 28.5723C29.575 28.5723 31.6192 27.7364 33.3089 26.0645C34.9986 24.3926 35.8435 22.3701 35.8435 20C35.8435 19.6086 35.7042 19.2736 35.4194 18.9919ZM18.5412 20.7765C18.5254 20.8986 18.5064 21.0207 18.4843 21.1396C18.4716 21.1991 18.459 21.2555 18.4463 21.315C18.4337 21.3745 18.4178 21.4339 18.402 21.4934C18.364 21.6343 18.3198 21.7783 18.2723 21.9192C18.2723 21.9192 18.2691 21.9255 18.2691 21.9286C17.9938 22.7019 17.5382 23.4033 16.9053 24.0294C15.7788 25.1378 14.4182 25.6982 12.8171 25.6982C11.216 25.6982 9.85534 25.1378 8.72886 24.0294C7.60554 22.918 7.04547 21.5748 7.04231 19.9937C7.04547 18.4126 7.60554 17.0695 8.72886 15.9549C9.85534 14.8435 11.216 14.2862 12.8171 14.2862C14.4182 14.2862 15.7788 14.8435 16.9053 15.9549C17.7976 16.841 18.3356 17.8741 18.5191 19.0545V20C18.5191 20.2442 18.5318 20.479 18.5476 20.7138C18.5444 20.7358 18.5444 20.7577 18.5412 20.7765Z" fill="#58B99B"/>
</svg>
